<svg version="1" xmlns="http://www.w3.org/2000/svg" width="205.333" height="205.333" viewBox="0 0 154.000000 154.000000"><path d="M72.7 18.7c-2.3 3.7-30.4 51.9-54.6 93.8C11.5 124 6 134.2 6 135.2c0 .9.9 2.2 1.9 2.8 2.7 1.4 135.5 1.4 138.2 0 1-.6 1.9-1.9 1.9-2.8 0-1.6-20.8-38.1-57.1-100.2-12.8-21.9-14-23-18.2-16.3zm8.4 5.5c2 3.5 16.9 29.6 33.3 58 16.3 28.4 29.6 51.9 29.6 52.2 0 .3-30.1.6-67 .6s-67-.3-67-.6 13.3-23.8 29.6-52.2c16.4-28.4 31.3-54.5 33.3-58 1.9-3.4 3.8-6.2 4.1-6.2.3 0 2.2 2.8 4.1 6.2z"/><path d="M71 53c-2 2-2.1 2.9-1.5 21.8.3 10.8.8 21.1 1.1 22.8.9 6.5 7.9 8.5 11.5 3.4 1.5-2.1 1.8-5.8 2.4-24.2.7-21.1.6-21.7-1.4-23.7-2.8-2.8-9.3-2.9-12.1-.1zM71 114c-3.1 3.1-2.7 9.3.6 11.9 8.2 6.5 19.3-4.1 11.9-11.4-3.1-3.2-9.6-3.4-12.5-.5z"/></svg>